<?xml version="1.0" encoding="utf-8"?>
<!-- Generator: Adobe Illustrator 18.1.0, SVG Export Plug-In . SVG Version: 6.00 Build 0)  -->
<svg version="1.1" xmlns="http://www.w3.org/2000/svg" xmlns:xlink="http://www.w3.org/1999/xlink" x="0px" y="0px"
	 viewBox="0 0 160 160" enable-background="new 0 0 160 160" xml:space="preserve">
<g id="Layer_1">
	<g id="ic_x5F_arrow_x5F_drop_x5F_down" opacity="0.54">
	</g>
	<g>
		
			<image overflow="visible" opacity="0.3" width="692" height="692" xlink:href="CB8B28D4.png"  transform="matrix(0.24 0 0 0.24 -3 -2)">
		</image>
		<g>
			<g>
				<g>
					<path fill="#FFD300" d="M29.6,117.2c19.2-4.4,38.2-8.4,29.1-25.2C31.6,42.2,51,14,80,14c28.5,0,48.3,27.2,21.3,78
						c-8.9,16.7,9.4,20.7,29.1,25.2c8.1,1.9,12.6,4.7,15.1,8.7c9.1-13,14.5-28.9,14.5-46c0-44.2-35.8-80-80-80C35.8,0,0,35.8,0,80
						c0,17.1,5.4,33,14.5,46C17,121.9,21.5,119.1,29.6,117.2z"/>
				</g>
				<path fill="#C69720" d="M130.4,117.2c-19.7-4.5-37.9-8.5-29.1-25.2c27-50.8,7.1-78-21.3-78c-29,0-48.4,28.2-21.3,78
					c9.1,16.8-9.9,20.8-29.1,25.2c-8.1,1.9-12.6,4.7-15.1,8.7c7.3,10.4,17.1,19,28.4,25C54,156.7,66.6,160,80,160
					c13.4,0,26-3.3,37.1-9.1c11.3-5.9,21.1-14.5,28.4-25C143,121.9,138.5,119.1,130.4,117.2z"/>
			</g>
		</g>
	</g>
</g>
<g id="Layer_2">
</g>
</svg>
