<?xml version="1.0" encoding="utf-8"?>
<!-- Generator: Adobe Illustrator 18.1.0, SVG Export Plug-In . SVG Version: 6.00 Build 0)  -->
<svg version="1.1" id="Layer_1" xmlns="http://www.w3.org/2000/svg" xmlns:xlink="http://www.w3.org/1999/xlink" x="0px" y="0px"
	 viewBox="61 11 18 18" enable-background="new 61 11 18 18" xml:space="preserve">
<g>
	<path fill="#DD4B39" d="M72.4,11c0,0-3.9,0-5.3,0c-2.7,0-4.9,2-4.9,4.2c0,2.2,1.5,4,4,4c0.2,0,0.3,0,0.5,0c-0.2,0.3-0.3,0.7-0.3,1
		c0,0.6,0.3,1,0.8,1.4c-0.3,0-0.6,0-1,0c-3.1,0-5.2,2.1-5.2,4.2c0,2,2.6,3.3,5.7,3.3c3.5,0,5.7-2,5.7-4c0-1.6-0.3-2.4-2.1-3.7
		c-0.5-0.4-1.6-1.1-1.6-1.6c0-0.6,0.2-0.9,1.1-1.6c0.9-0.7,1.6-1.7,1.6-2.8c0-1.3-0.5-2.4-1.5-3h1.4L72.4,11z M70.7,24.7
		c0,0.2,0.1,0.4,0.1,0.6c0,1.6-1,2.9-4,2.9c-2.1,0-3.7-1.3-3.7-3c0-1.6,1.8-3,3.9-2.9c0.5,0,1,0.1,1.4,0.2
		C69.5,23.2,70.4,23.7,70.7,24.7z M67.2,18.4c-1.4,0-2.8-1.4-3-3.2c-0.2-1.9,0.7-3.3,2.1-3.3c1.4,0,2.7,1.6,2.9,3.5
		C69.5,17.2,68.7,18.4,67.2,18.4z"/>
	<polygon fill="#DD4B39" points="76.5,11.2 75.3,11.2 75.3,13.7 72.9,13.7 72.9,14.9 75.3,14.9 75.3,17.4 76.5,17.4 76.5,14.9 
		79,14.9 79,13.7 76.5,13.7 	"/>
</g>
</svg>
